<svg xmlns="http://www.w3.org/2000/svg" width="209" height="67.5" viewBox="0 0 209 67.5"><path d="M162.58 59.887V58.72c.107.012.22.02.338.02.395 0 .807-.074 1.233-.22.43-.145.873-.366 1.33-.662V59.1c-.413.265-.838.465-1.273.598-.438.13-.888.197-1.356.197-.09 0-.182-.003-.27-.008zm0-3.017v-.885l1.643-.003c-.04-.447-.204-.808-.49-1.08-.287-.273-.646-.41-1.076-.41h-.077V53.43l.09-.002c.897 0 1.61.294 2.132.88.525.588.787 1.38.787 2.38v.182h-3.01zm0-3.44v1.062c-.44.013-.798.14-1.073.377-.292.254-.482.626-.57 1.12l1.643-.005v.885h-1.644c.036.587.23 1.046.578 1.376.278.263.635.42 1.065.474v1.168c-.855-.052-1.55-.353-2.078-.902-.585-.608-.876-1.418-.876-2.43 0-.93.28-1.682.844-2.26.543-.56 1.247-.847 2.11-.867zm-11.723 6.366v-.845c.163-.014.323-.05.48-.108.21-.08.417-.195.618-.347v-1.82c-.437.138-.804.27-1.1.394v-.82l1.1-.366c.005-.037.008-.07.01-.108.002-.036.005-.087.005-.153 0-.374-.092-.643-.273-.806-.173-.155-.452-.237-.84-.244V53.43h.1c.795 0 1.376.176 1.74.526.362.352.544.92.544 1.705v2.627c0 .22.02.377.06.47s.1.137.19.137c.076 0 .155-.02.24-.06.082-.042.218-.136.405-.285v.754c-.225.192-.45.335-.68.427s-.465.14-.713.14c-.238 0-.415-.052-.534-.15s-.188-.254-.204-.47c-.314.22-.612.378-.893.475-.08.026-.166.05-.253.07zm4.024-.036v-6.21h1.238v1.35c.344-.543.656-.92.93-1.135.276-.215.575-.323.898-.323.225 0 .452.048.682.146.23.1.477.253.736.46l-.673 1.1c-.2-.174-.394-.3-.577-.38-.184-.078-.376-.117-.578-.117-.335 0-.628.144-.88.426-.25.282-.43.674-.537 1.177v3.508h-1.237zm-4.023-6.33v1.142h-.057c-.345 0-.7.072-1.07.217-.366.145-.733.36-1.1.648v-1.223c.318-.262.674-.457 1.068-.59.366-.12.75-.186 1.16-.196zm0 2.82v.82c-.267.113-.475.222-.623.325-.317.22-.476.475-.476.766 0 .256.083.453.245.59.163.14.393.21.688.21.057 0 .11-.003.166-.008v.845c-.205.047-.422.07-.648.07-.556 0-.99-.132-1.304-.398-.314-.267-.47-.634-.47-1.1 0-.438.17-.823.512-1.156.34-.33.853-.61 1.537-.84l.374-.124zm-17.234-1.625v-.464l1.86-2.056h.142v1.445h1.943v1.074h-1.943v2.85c0 .514.064.847.193.998.126.148.364.225.716.225.188 0 .37-.025.55-.073.18-.05.354-.126.525-.23v1.17c-.193.108-.402.19-.625.24-.22.052-.458.077-.716.077-.698 0-1.19-.164-1.476-.497-.284-.33-.427-.936-.427-1.814v-2.944h-.744zm0-3.184v-1.097c.094.02.196.04.31.066v1.09c-.114-.025-.217-.043-.31-.06zm6.868 8.44l-2.748-6.33h1.304l1.775 4.12 1.708-4.12h.812l1.734 4.105 1.775-4.105h1.31l-2.77 6.33h-.605l-1.842-4.495-1.847 4.496h-.605zm-6.867-9.537v1.098l-.145-.02c-.127-.02-.24-.028-.333-.028-.376 0-.643.104-.798.313-.16.208-.236.573-.236 1.094v.752h.826v1.075h-.825v5.135h-1.277v-5.135h-.814V53.55h.813v-.564c0-.54.023-.93.066-1.17.045-.243.123-.452.235-.634.18-.29.427-.516.743-.68.314-.16.668-.24 1.058-.24.122 0 .26.012.415.035.082.01.17.027.273.046zm0 3.82l-.31.342v.12h.31v-.463zm-7.556 5.718V58.74c.547 0 1.018-.204 1.41-.614.392-.41.587-.902.587-1.476 0-.57-.195-1.06-.585-1.466-.392-.408-.86-.612-1.412-.612v-1.156h.012c.436 0 .85.083 1.248.245.396.162.75.396 1.064.7.318.324.56.678.727 1.064.165.385.247.794.247 1.223 0 .427-.085.842-.255 1.245-.172.402-.41.755-.72 1.056-.314.308-.665.54-1.058.697-.393.158-.81.236-1.255.236h-.013zm-8.467-.543v-1.323c.37.245.73.434 1.075.564.345.13.66.194.947.194.316 0 .566-.06.748-.18.182-.116.273-.278.273-.485 0-.26-.338-.557-1.015-.895-.197-.1-.35-.177-.456-.236-.578-.296-.975-.58-1.19-.855s-.324-.61-.324-1.01c0-.522.187-.935.558-1.24.372-.305.884-.456 1.532-.456.352 0 .687.04 1.01.124.32.083.638.21.947.385v1.212c-.38-.21-.73-.367-1.044-.468-.315-.102-.616-.15-.897-.15-.26 0-.46.045-.602.134-.14.09-.21.22-.21.392 0 .313.432.684 1.296 1.11l.115.052c.678.343 1.118.64 1.324.897.206.26.31.586.31.98 0 .546-.204.984-.614 1.31-.41.328-.954.49-1.63.49-.39 0-.76-.045-1.11-.135-.355-.088-.702-.224-1.04-.408zm8.467-5.922v1.156c-.553 0-1.022.205-1.412.613-.39.406-.585.895-.585 1.466 0 .577.195 1.07.585 1.477.39.408.86.612 1.412.612v1.142c-.917-.003-1.694-.317-2.332-.94-.64-.63-.96-1.393-.96-2.294 0-.9.32-1.663.96-2.292.638-.624 1.415-.94 2.332-.94zM202.412 50.79v-1.05c.567-.002 1.012-.077 1.336-.23.328-.15.49-.36.49-.623 0-.29-.186-.51-.555-.658-.3-.122-.725-.193-1.27-.216v-1.2c.192.057.425.11.694.165l.553.106c.602.127 1.056.335 1.365.63s.463.673.463 1.13c0 .633-.264 1.115-.79 1.445-.524.332-1.288.497-2.286.5zm0-4.913V44.84c.402-.002.723-.105.96-.31.235-.205.355-.486.355-.847 0-.345-.124-.627-.374-.85-.246-.22-.56-.33-.94-.332v-1.025c.18-.015.37-.022.568-.022h2.467v1.007H204.4c.17.184.295.38.375.58.08.205.12.435.12.685 0 .52-.157.964-.474 1.33-.313.367-.74.6-1.272.693-.116.022-.272.048-.47.08-.095.015-.184.032-.266.05zm0-4.4V42.5h-.01c-.38 0-.69.11-.93.333-.24.222-.36.504-.36.85 0 .36.114.645.342.85.23.204.546.306.95.306h.008v1.038c-.49.104-.736.26-.736.463 0 .17.246.327.736.473v1.2c-.125-.004-.256-.007-.395-.007-.42 0-.764.078-1.032.232-.266.153-.398.348-.398.582 0 .303.15.534.456.688.306.153.755.23 1.347.23h.022v1.05h-.01c-.98 0-1.73-.16-2.25-.48-.516-.32-.774-.786-.774-1.394 0-.437.15-.794.454-1.076s.747-.478 1.332-.585c-.235-.108-.41-.223-.518-.347-.11-.122-.166-.26-.166-.413 0-.16.066-.308.202-.436.133-.13.347-.257.638-.376-.465-.144-.82-.38-1.064-.713-.245-.33-.367-.74-.367-1.23 0-.75.26-1.32.78-1.706.417-.31.998-.493 1.742-.554zM181.12 47.79v-1.168c.108.013.22.02.34.02.394 0 .806-.073 1.232-.218.43-.147.872-.367 1.328-.663v1.243c-.412.264-.837.464-1.272.597-.438.13-.888.197-1.356.197-.092 0-.183-.004-.272-.008zm0-3.02v-.883l1.644-.005c-.04-.447-.204-.808-.49-1.08-.287-.273-.646-.41-1.076-.41h-.077v-1.062h.092c.896 0 1.608.293 2.13.88.526.587.788 1.38.788 2.38v.18h-3.01zm4.18 2.892v-6.21h1.235v1.35c.344-.542.656-.92.932-1.134.275-.216.573-.323.896-.323.226 0 .452.048.682.146.23.1.478.253.736.46l-.67 1.1c-.203-.174-.396-.3-.58-.38-.183-.078-.375-.117-.577-.117-.335 0-.63.142-.88.424-.25.282-.43.675-.538 1.177v3.508H185.3zm5.105-8.04c0-.194.066-.36.202-.494.133-.136.3-.202.497-.202.195 0 .363.066.496.202.136.133.202.3.202.495 0 .197-.066.364-.202.498-.133.135-.3.202-.496.202s-.364-.067-.497-.202c-.135-.133-.202-.3-.202-.498zm.08 8.04v-6.21h1.236v6.21h-1.235zm2.867 0v-6.21h1.236v.76c.31-.296.617-.512.924-.65.308-.134.638-.203.99-.203.673 0 1.203.196 1.59.586s.58.925.58 1.605v4.114h-1.235v-3.797c0-.502-.105-.873-.318-1.112-.215-.24-.545-.36-.992-.36-.32 0-.597.063-.838.187-.238.12-.473.325-.7.607v4.475h-1.238zm-12.232-6.33v1.062c-.44.013-.797.14-1.072.377-.29.255-.482.626-.57 1.12l1.643-.004v.883h-1.643c.037.588.23 1.047.578 1.377.278.262.635.42 1.065.474v1.168c-.854-.053-1.547-.353-2.077-.903-.585-.608-.876-1.42-.876-2.43 0-.93.282-1.682.844-2.26.544-.56 1.248-.847 2.11-.867zm-6.715 6.458v-1.168c.108.013.22.02.34.02.394 0 .806-.073 1.233-.218.43-.147.87-.367 1.328-.663v1.243c-.413.264-.838.464-1.273.597-.438.13-.888.197-1.355.197-.093 0-.184-.004-.273-.008zm0-3.02v-.883l1.644-.005c-.042-.447-.205-.808-.49-1.08-.288-.273-.646-.41-1.077-.41h-.077v-1.062h.09c.897 0 1.61.293 2.132.88.525.587.787 1.38.787 2.38v.18h-3.01zm0-3.44v1.064c-.44.013-.797.14-1.072.377-.29.255-.48.626-.57 1.12l1.643-.004v.883h-1.644c.037.588.23 1.047.578 1.377.278.262.635.42 1.065.474v1.168c-.854-.053-1.547-.353-2.077-.903-.585-.608-.876-1.42-.876-2.43 0-.93.282-1.682.844-2.26.543-.56 1.247-.847 2.11-.867zm-16.28 9.457v-1.05c.567-.002 1.012-.077 1.336-.23.33-.15.49-.36.49-.623 0-.29-.185-.51-.554-.658-.3-.122-.725-.193-1.27-.216v-1.2c.193.057.425.11.695.165l.554.106c.6.127 1.055.335 1.364.63s.464.673.464 1.13c0 .633-.264 1.115-.79 1.445-.525.332-1.288.497-2.287.5zm0-4.913V44.84c.402-.002.723-.105.96-.31.236-.205.355-.486.355-.847 0-.345-.124-.627-.374-.85-.246-.22-.56-.33-.94-.332v-1.025c.18-.015.37-.022.568-.022h2.466v1.007h-1.048c.17.184.296.38.376.58.08.205.122.435.122.685 0 .52-.158.964-.475 1.33-.314.367-.74.6-1.273.693-.117.022-.273.048-.47.08-.096.015-.185.032-.267.05zm3.917-6.252c0-.195.066-.362.2-.495.135-.136.302-.202.5-.202.194 0 .36.066.495.202.135.133.2.3.2.495 0 .197-.065.364-.2.498-.134.135-.3.202-.496.202s-.363-.067-.497-.202c-.135-.133-.2-.3-.2-.498zm.08 8.04v-6.21h1.236v6.21h-1.236zm2.865 0v-6.21h1.236v.76c.31-.297.617-.513.925-.65.308-.135.638-.204.99-.204.673 0 1.203.196 1.59.586.388.39.58.925.58 1.605v4.114h-1.235v-3.797c0-.502-.105-.873-.32-1.112-.212-.24-.543-.36-.99-.36-.318 0-.596.063-.837.187-.238.12-.473.325-.702.607v4.475h-1.237zm-6.862-6.19v1.027h-.01c-.38 0-.69.11-.93.333-.24.222-.36.504-.36.85 0 .36.114.645.342.85.23.204.546.306.95.306h.008v1.038c-.49.104-.735.26-.735.463 0 .17.245.327.735.473v1.2c-.125-.004-.256-.007-.394-.007-.42 0-.764.078-1.03.232-.268.153-.4.348-.4.582 0 .303.15.534.456.688.306.153.755.23 1.347.23h.022v1.05h-.01c-.98 0-1.73-.16-2.25-.48-.516-.32-.774-.786-.774-1.394 0-.437.152-.794.455-1.076s.748-.478 1.333-.585c-.236-.108-.41-.223-.52-.347-.11-.122-.164-.26-.164-.413 0-.16.066-.308.202-.436.133-.13.346-.257.637-.376-.465-.144-.82-.38-1.064-.713-.246-.33-.367-.74-.367-1.23 0-.75.26-1.32.78-1.706.417-.31.998-.493 1.742-.554zM144.9 47.793v-1.168c.107.013.22.02.338.02.395 0 .807-.073 1.233-.218.43-.147.873-.367 1.33-.663v1.243c-.413.264-.838.464-1.273.597-.438.13-.888.197-1.356.197-.09 0-.182-.004-.27-.008zm0-3.02v-.883l1.643-.005c-.04-.447-.204-.808-.49-1.08-.287-.273-.646-.41-1.076-.41h-.077v-1.062h.09c.897 0 1.61.293 2.132.88.525.587.787 1.38.787 2.38v.18h-3.01zm4.164 2.892v-6.21h1.236v.76c.31-.296.617-.512.925-.65.307-.134.638-.203.99-.203.673 0 1.202.196 1.59.586s.58.925.58 1.605v4.114h-1.236v-3.797c0-.502-.106-.873-.32-1.112-.212-.24-.543-.36-.99-.36-.318 0-.597.063-.837.187-.238.12-.473.325-.702.607v4.475h-1.236zm-26.203-1.47v1.262c-.313.112-.618.194-.912.25-.296.053-.59.08-.88.08-1.015 0-1.846-.303-2.494-.91-.65-.608-.975-1.382-.975-2.324 0-.918.324-1.687.974-2.306.648-.617 1.463-.927 2.438-.927.3 0 .597.03.888.093.29.063.578.158.86.29v1.322c-.287-.174-.57-.305-.852-.387-.28-.083-.564-.124-.855-.124-.638 0-1.156.19-1.558.57-.4.38-.6.87-.6 1.467 0 .61.203 1.106.61 1.49.407.382.943.575 1.606.575.307 0 .603-.035.892-.104s.577-.175.86-.317zm22.04-4.86v1.062c-.44.013-.798.14-1.073.377-.292.255-.482.626-.57 1.12l1.643-.004v.883h-1.644c.036.588.23 1.047.578 1.377.278.262.635.42 1.065.474v1.168c-.855-.053-1.55-.353-2.078-.903-.585-.608-.876-1.42-.876-2.43 0-.93.28-1.682.844-2.26.543-.56 1.247-.847 2.11-.867zm-20.882-1.71c0-.194.066-.36.202-.494.133-.136.3-.202.497-.202.195 0 .363.066.496.202.136.133.202.3.202.495 0 .197-.066.364-.202.498-.133.135-.3.202-.496.202s-.364-.067-.497-.202c-.136-.133-.202-.3-.202-.498zm.08 8.04v-6.21h1.236v6.21h-1.236zm4.875.122l-2.99-6.332h1.378l1.916 4.12 1.787-4.12h1.352l-2.863 6.332h-.58zm4.058-8.16c0-.196.067-.363.202-.496.134-.136.3-.202.498-.202.195 0 .362.066.496.202.135.133.2.3.2.495 0 .197-.065.364-.2.498-.134.135-.3.202-.496.202-.197 0-.364-.067-.498-.202-.134-.133-.2-.3-.2-.498zm.08 8.038v-6.21h1.237v6.21h-1.236zm2.906 0V38.26h1.236v9.403h-1.236z" fill-rule="evenodd" clip-rule="evenodd" fill="#FFF"/><path clip-rule="evenodd" fill="none" stroke="#FFF" stroke-miterlimit="22.926" d="M4.608 65.807h161.568M117.576 35.496h88.56"/><path d="M89.676 60.55v-5.902c1.998 0 3.498-.073 4.428-.217 1.008-.143 1.728-.43 2.088-.79.288-.29.504-.793.576-1.585h9c-.288 2.664-1.08 4.608-2.376 5.76-1.15 1.01-2.808 1.73-4.896 2.09-2.03.404-4.95.62-8.82.644zm0-10.87v-4.97h7.236c0-1.007-.072-1.655-.144-2.015-.144-.36-.288-.648-.576-.937-.792-.862-2.808-1.15-6.192-1.15h-.324V34.92h.18c4.032 0 6.84.145 8.496.432 2.88.505 4.896 1.584 5.976 3.313 1.08 1.728 1.656 4.536 1.656 8.568 0 .36-.072 1.15-.072 2.447H89.676zM0 41.974v-6.407h4.608c.072-2.592.288-4.392.576-5.472.288-1.008.936-1.944 1.8-2.808.936-.864 2.16-1.512 3.6-1.8 1.44-.36 3.672-.504 6.624-.504 1.44 0 2.952 0 4.536.072v6.048c-1.152 0-1.944-.072-2.376-.072-2.52 0-4.104.36-4.896 1.08-.288.288-.504.647-.648 1.15-.144.434-.216 1.226-.216 2.306h8.784v6.407h-8.784v17.93h-9v-17.93H0zm89.676-7.056v5.687c-2.845.01-4.752.164-5.724.72-.936.504-1.44 1.656-1.512 3.384h7.236v4.97H82.44c0 1.224.072 2.16.216 2.663s.504 1.008.936 1.296c.864.72 2.88 1.008 6.048 1.008h.036v5.9l-.756.003c-3.456 0-6.12-.215-7.992-.503-1.872-.36-3.384-1.008-4.464-1.8-1.152-.936-1.944-2.088-2.376-3.6-.432-1.44-.648-3.744-.648-6.84 0-2.305.072-4.032.288-5.257.144-1.15.432-2.16.936-3.096.936-1.944 2.664-3.168 5.184-3.744 2.13-.567 5.384-.785 9.828-.79zm-65.124.648h9v24.336h-9V35.568zm13.032 0h8.496v3.744h.432c.864-1.656 2.016-2.736 3.6-3.385 1.512-.647 3.744-1.008 6.624-1.008 2.88 0 5.112.215 6.768.72 1.656.432 3.024 1.224 4.104 2.375 1.08 1.152 1.8 2.376 2.088 3.673.36 1.367.504 3.743.504 7.128v11.088h-8.928V48.816c0-1.944-.072-3.313-.216-4.032-.144-.648-.504-1.225-.936-1.73-.864-.862-2.88-1.295-6.048-1.295-3.096 0-5.184.503-6.192 1.583-.504.576-.864 1.296-1.008 2.16-.216.864-.288 2.448-.288 4.608v9.793h-9V35.568z" fill-rule="evenodd" clip-rule="evenodd" fill="#FFF"/><path fill-rule="evenodd" clip-rule="evenodd" fill="#BCBEC0" d="M37.728 15.552L53.28 0l4.68 4.752-10.8 10.8 10.8 10.8-4.68 4.68"/><path fill-rule="evenodd" clip-rule="evenodd" fill="#D1D3D4" d="M50.256 15.552L65.736 0l4.752 4.752-10.8 10.8 10.8 10.8-4.752 4.68"/><path fill-rule="evenodd" clip-rule="evenodd" fill="#E6E7E8" d="M62.784 15.552L78.264 0l4.68 4.752-10.728 10.8 10.728 10.8-4.68 4.68"/><path fill-rule="evenodd" clip-rule="evenodd" fill="#FFF" d="M75.312 15.552L90.792 0l15.48 15.552-15.48 15.48"/></svg>